<?xml version="1.0" standalone="no"?>
<!DOCTYPE svg PUBLIC "-//W3C//DTD SVG 20010904//EN"
 "http://www.w3.org/TR/2001/REC-SVG-20010904/DTD/svg10.dtd">
<svg version="1.0" xmlns="http://www.w3.org/2000/svg"
 width="1182.000000pt" height="974.000000pt" viewBox="0 0 1182.000000 974.000000"
 preserveAspectRatio="xMidYMid meet">
<metadata>
Created by potrace 1.16, written by Peter Selinger 2001-2019
</metadata>
<g transform="translate(0.000000,974.000000) scale(0.100000,-0.100000)"
fill="#000000" stroke="none">
<path d="M9443 9495 c-24 -13 -43 -21 -43 -17 0 4 -4 1 -8 -6 -5 -7 -18 -14
-30 -17 -12 -2 -34 -11 -49 -19 -16 -8 -327 -162 -693 -341 -366 -180 -667
-328 -669 -330 -2 -2 160 -86 360 -185 l363 -182 233 117 c128 65 230 121 227
126 -3 5 3 6 12 2 13 -5 15 -3 9 7 -5 9 -4 11 3 6 6 -4 32 4 57 18 25 13 41
26 35 28 -5 1 -1 9 11 17 19 11 21 11 16 -3 -5 -13 -2 -13 28 1 37 18 43 30
23 53 -7 8 -4 7 8 -3 20 -16 21 -16 19 0 -1 10 -7 29 -15 43 -12 22 -12 24 2
12 13 -10 18 -10 24 -1 5 8 3 9 -6 4 -10 -6 -11 -4 -5 11 4 10 7 29 6 42 0 12
5 22 11 22 7 0 3 7 -8 16 -18 14 -18 15 6 8 22 -6 23 -5 12 9 -9 10 -10 17 -2
22 13 8 13 25 -1 25 -5 0 -8 -4 -5 -9 3 -5 -1 -11 -9 -15 -8 -3 -17 0 -21 7
-4 7 -4 9 1 5 5 -5 15 1 22 12 8 11 17 18 21 16 4 -2 7 7 7 20 0 13 -4 24 -8
24 -5 0 -5 5 -2 10 4 6 12 7 18 4 8 -5 8 -3 0 7 -19 20 -16 28 10 23 12 -2 6
2 -13 10 -19 8 -27 15 -18 15 12 1 16 7 12 19 -5 14 -4 14 4 2 6 -8 8 -18 6
-22 -10 -16 2 -8 20 14 15 17 15 20 3 15 -11 -4 -14 -2 -10 8 3 8 10 12 17 9
6 -3 1 3 -10 13 -21 19 -22 20 -3 32 11 6 17 16 14 21 -3 6 0 10 7 10 7 1 2 7
-12 15 -14 8 -19 14 -12 15 10 0 10 5 2 21 -10 17 -8 21 11 26 21 6 21 7 3 21
-16 12 -16 14 -2 9 10 -4 17 -3 17 1 -4 21 2 32 14 26 6 -4 9 -4 5 1 -4 4 -3
16 3 26 8 15 6 21 -6 26 -13 4 -14 8 -4 14 8 5 17 3 22 -4 6 -8 7 -8 4 3 -2 8
-12 14 -22 12 -10 -2 -14 1 -10 7 3 6 1 11 -4 11 -6 0 -3 9 6 19 9 11 21 18
27 17 6 -2 8 -1 3 1 -4 3 -5 9 -1 14 8 13 4 12 -43 -16z"/>
<path d="M7940 8390 c0 -274 3 -350 13 -349 6 0 167 78 357 173 l345 174 -353
176 c-193 97 -354 176 -357 176 -3 0 -5 -157 -5 -350z"/>
<path d="M3502 7513 c-10 -4 -10 -8 0 -21 12 -13 10 -14 -10 -3 -18 9 -22 9
-20 -1 2 -7 -3 -12 -10 -10 -8 1 -11 -2 -7 -8 4 -6 14 -9 24 -6 12 5 11 2 -3
-9 -11 -8 -16 -15 -12 -15 5 0 3 -7 -4 -15 -13 -16 -35 -10 -24 6 3 5 10 7 15
4 5 -3 6 1 3 9 -3 8 -12 17 -21 20 -18 7 -99 -36 -96 -51 1 -6 -6 -9 -15 -6
-19 5 -110 -38 -587 -272 -165 -81 -397 -195 -515 -252 l-215 -105 363 -179
364 -178 276 137 c153 75 279 139 282 142 3 3 14 10 25 17 11 6 19 16 17 22
-1 6 2 11 8 11 5 0 10 -4 10 -10 0 -6 10 -5 25 2 16 7 22 15 16 21 -5 5 -7 16
-4 25 4 9 2 13 -4 9 -7 -4 -10 0 -9 10 2 9 9 19 17 21 11 3 11 2 1 -6 -10 -7
-10 -11 3 -22 13 -11 13 -15 3 -21 -9 -6 -9 -9 -1 -9 16 0 26 17 13 25 -5 3
-10 11 -10 16 0 6 4 8 8 5 4 -2 8 3 9 12 1 9 3 32 5 50 3 18 1 35 -4 38 -4 3
-9 -5 -9 -18 -1 -20 -2 -21 -6 -3 -6 25 -22 45 -36 45 -5 0 -2 -10 9 -22 14
-17 15 -19 2 -10 -15 12 -17 9 -15 -34 2 -43 0 -49 -23 -55 l-25 -7 25 -2 c23
-1 23 -2 5 -10 l-20 -9 20 -1 20 -1 -20 -9 c-29 -12 -29 -12 -44 13 -13 21
-13 21 4 7 16 -13 18 -13 13 0 -3 8 -1 23 3 32 7 12 4 20 -8 27 -23 13 -8 14
16 2 13 -7 18 -6 18 4 0 8 -4 12 -8 10 -4 -3 -10 2 -13 10 -3 9 1 18 9 21 17
7 20 34 4 34 -5 0 -7 -4 -4 -10 4 -6 -1 -7 -11 -3 -11 4 -13 8 -6 11 7 2 10 7
7 11 -2 5 6 6 19 4 13 -3 26 0 30 5 4 6 -3 8 -16 5 -17 -3 -19 -2 -9 5 11 8
11 10 0 15 -10 4 -10 6 -1 6 6 1 12 6 12 12 0 5 -4 8 -9 4 -5 -3 -13 0 -17 6
-4 8 -3 9 4 5 7 -4 12 -1 12 6 0 9 3 9 10 -2 8 -12 10 -11 10 8 0 12 -5 21
-11 20 -16 -4 -21 14 -10 31 16 26 39 -4 35 -45 -3 -32 -2 -34 14 -22 15 11
15 11 5 -3 -7 -9 -10 -19 -6 -22 3 -4 2 -7 -3 -7 -16 0 -14 -38 2 -51 13 -10
14 -8 10 15 -3 18 -1 24 6 20 8 -5 9 -1 5 10 -4 10 -3 15 3 11 6 -4 8 6 6 24
-2 17 1 28 6 25 5 -3 7 -12 4 -19 -2 -7 1 -16 8 -18 21 -8 13 37 -9 50 -11 7
-14 12 -7 13 7 0 10 5 6 12 -4 7 -3 8 5 4 6 -4 9 -11 7 -15 -3 -4 1 -8 9 -8
11 0 12 4 3 14 -8 10 -6 18 7 33 16 18 14 25 -7 21 -14 -2 -8 17 7 23 18 7 16
28 -5 38 -12 5 -12 7 3 7 9 1 17 6 17 12 0 5 -4 8 -9 4 -5 -3 -13 0 -17 6 -4
8 -3 9 4 5 16 -10 15 6 0 24 -7 8 0 4 17 -10 16 -14 24 -17 17 -8 -11 14 -10
18 5 27 11 6 13 11 5 11 -7 0 -10 5 -6 12 4 7 3 8 -5 4 -6 -4 -9 -12 -6 -17 4
-5 2 -9 -4 -9 -5 0 -8 12 -6 28 2 15 4 30 4 34 1 4 9 5 19 1 14 -5 14 -3 -3
11 -17 15 -17 17 -3 12 10 -3 17 -2 17 2 -3 21 2 32 13 26 7 -5 8 -3 3 6 -6
10 -11 10 -20 -4 -11 -15 -13 -15 -19 -1 -3 9 -2 14 3 11 5 -3 12 1 15 10 9
23 7 34 -5 34 -5 0 -7 -4 -4 -10 4 -6 -1 -7 -11 -3 -11 4 -13 8 -6 11 7 2 10
7 7 11 -2 5 8 6 23 4 22 -3 24 -2 7 5 -19 9 -19 9 3 16 12 4 22 12 22 17 0 6
-5 7 -10 4 -7 -4 -9 2 -4 19 6 26 1 29 -24 19z"/>
<path d="M5462 7513 c-10 -4 -10 -8 0 -21 12 -13 10 -14 -10 -3 -18 9 -22 9
-20 -1 2 -7 -3 -12 -10 -10 -8 1 -11 -2 -7 -8 4 -6 14 -9 24 -6 12 5 11 2 -3
-9 -11 -8 -16 -15 -12 -15 5 0 3 -7 -4 -15 -13 -16 -35 -10 -24 6 3 5 10 7 15
4 5 -3 6 1 3 9 -3 8 -12 17 -21 20 -18 7 -99 -36 -96 -51 1 -6 -6 -9 -16 -6
-17 4 -146 -57 -1056 -502 l-260 -128 363 -178 364 -178 276 137 c153 75 279
139 282 142 3 3 14 10 25 17 11 6 19 16 17 22 -1 6 2 11 8 11 6 0 10 -4 10
-10 0 -6 10 -5 25 2 16 7 22 15 16 21 -5 5 -7 16 -4 25 4 9 2 13 -4 9 -7 -4
-10 0 -9 10 2 9 9 19 17 21 11 3 11 2 1 -6 -10 -7 -10 -11 3 -22 13 -11 13
-15 3 -21 -9 -6 -9 -9 -1 -9 16 0 26 17 13 25 -5 3 -10 11 -10 16 0 6 4 8 8 5
4 -2 8 3 9 12 1 9 3 32 5 50 3 18 1 35 -4 38 -4 3 -9 -5 -9 -18 -1 -20 -2 -21
-6 -3 -6 25 -22 45 -36 45 -5 0 -2 -10 9 -22 14 -17 15 -19 2 -10 -15 12 -17
9 -15 -34 2 -43 0 -49 -23 -55 l-25 -7 25 -2 c23 -1 23 -2 5 -10 l-20 -9 20
-1 20 -1 -20 -9 c-29 -12 -29 -12 -44 13 -13 21 -13 21 4 7 16 -13 18 -13 13
0 -3 8 -1 23 3 32 7 12 4 20 -8 27 -23 13 -8 14 16 2 13 -7 18 -6 18 4 0 8 -4
12 -8 10 -4 -3 -10 2 -13 10 -3 9 1 18 9 21 17 7 20 34 4 34 -5 0 -7 -4 -4
-10 4 -6 -1 -7 -11 -3 -11 4 -13 8 -6 11 7 2 10 7 7 11 -2 5 6 6 19 4 13 -3
26 0 30 5 4 6 -3 8 -16 5 -17 -3 -19 -2 -9 5 11 8 11 10 0 15 -10 4 -10 6 -1
6 6 1 12 6 12 12 0 5 -4 8 -9 4 -5 -3 -13 0 -17 6 -4 8 -3 9 4 5 7 -4 12 -1
12 6 0 9 3 9 10 -2 8 -12 10 -11 10 8 0 12 -5 21 -11 20 -16 -4 -21 14 -10 31
16 26 39 -4 35 -45 -3 -32 -2 -34 14 -22 15 11 15 11 5 -3 -7 -9 -10 -19 -6
-22 3 -4 2 -7 -3 -7 -16 0 -14 -38 2 -51 13 -10 14 -8 10 15 -3 18 -1 24 6 20
8 -5 9 -1 5 10 -4 10 -3 15 3 11 6 -4 8 6 6 24 -2 17 1 28 6 25 5 -3 7 -12 4
-19 -2 -7 1 -16 8 -18 21 -8 13 37 -9 50 -11 7 -14 12 -7 13 7 0 10 5 6 12 -4
7 -3 8 5 4 6 -4 9 -11 7 -15 -3 -4 1 -8 9 -8 11 0 12 4 3 14 -8 10 -6 18 7 33
16 18 14 25 -7 21 -14 -2 -8 17 7 23 18 7 16 28 -5 38 -12 5 -12 7 3 7 9 1 17
6 17 12 0 5 -4 8 -9 4 -5 -3 -13 0 -17 6 -4 8 -3 9 4 5 16 -10 15 6 0 24 -7 8
0 4 17 -10 16 -14 24 -17 17 -8 -11 14 -10 18 5 27 11 6 13 11 5 11 -7 0 -10
5 -6 12 4 7 3 8 -5 4 -6 -4 -9 -12 -6 -17 4 -5 2 -9 -4 -9 -5 0 -8 12 -6 28 2
15 4 30 4 34 1 4 9 5 19 1 14 -5 14 -3 -3 11 -17 15 -17 17 -3 12 10 -3 17 -2
17 2 -3 21 2 32 13 26 7 -5 8 -3 3 6 -6 10 -11 10 -20 -4 -11 -15 -13 -15 -19
-1 -3 9 -2 14 3 11 5 -3 12 1 15 10 9 23 7 34 -5 34 -5 0 -7 -4 -4 -10 4 -6
-1 -7 -11 -3 -11 4 -13 8 -6 11 7 2 10 7 7 11 -2 5 8 6 23 4 22 -3 24 -2 7 5
-19 9 -19 9 3 16 12 4 22 12 22 17 0 6 -5 7 -10 4 -7 -4 -9 2 -4 19 6 26 1 29
-24 19z"/>
<path d="M2000 6410 c0 -192 3 -350 7 -350 12 0 693 344 693 350 0 3 -19 14
-42 25 -24 10 -181 87 -350 172 l-308 153 0 -350z"/>
<path d="M3970 6406 l0 -346 28 12 c83 38 662 333 661 337 0 5 -649 329 -680
339 -5 2 -9 -131 -9 -342z"/>
<path d="M5480 3549 c0 -5 -5 -7 -12 -3 -7 5 -9 2 -5 -9 4 -11 2 -14 -7 -11
-8 3 -17 0 -21 -5 -3 -6 -12 -8 -18 -5 -8 4 -7 2 1 -7 11 -12 14 -12 22 1 6 9
10 10 10 3 0 -7 -8 -17 -17 -22 -10 -6 -14 -11 -9 -11 5 0 3 -7 -4 -15 -7 -8
-16 -12 -22 -9 -5 3 -4 12 3 21 21 24 -9 34 -48 15 -18 -9 -33 -19 -33 -22 0
-4 -6 -7 -12 -7 -7 0 -312 -149 -678 -330 l-665 -330 363 -182 363 -181 234
117 c128 65 231 121 229 125 -3 4 3 5 12 1 13 -5 15 -3 9 7 -5 9 -4 11 3 6 6
-4 32 4 57 18 29 15 40 26 31 28 -11 2 -8 6 10 15 21 10 25 9 21 -1 -4 -9 4
-8 27 3 29 14 31 18 17 29 -14 11 -14 11 1 6 19 -6 45 31 28 41 -5 3 -10 11
-10 16 0 6 4 8 9 4 5 -3 13 0 17 6 5 8 3 9 -6 4 -10 -6 -12 -4 -6 11 12 28 13
67 2 82 -5 7 -6 15 -3 19 4 3 1 13 -6 21 -10 13 -9 14 2 7 11 -6 13 -4 8 9 -4
10 -3 15 3 11 6 -4 8 6 6 24 -2 17 1 28 6 25 5 -3 7 -12 4 -19 -2 -7 1 -16 8
-18 21 -8 13 37 -9 50 -18 12 -18 13 8 9 24 -4 27 -3 16 10 -9 11 -8 18 6 34
16 18 14 25 -7 21 -13 -2 -9 17 4 21 15 5 19 38 5 38 -6 0 -2 7 10 15 12 8 20
23 19 32 -2 10 2 21 8 25 8 5 7 8 -2 8 -7 0 -10 5 -6 12 4 6 3 8 -3 5 -12 -8
-22 12 -16 30 2 7 10 10 17 7 8 -3 13 2 13 13 0 36 3 44 15 37 7 -5 8 -3 3 6
-6 10 -11 10 -20 -4 -11 -15 -13 -15 -19 -1 -3 9 -2 13 4 10 6 -4 13 7 16 24
4 17 12 31 18 32 6 0 2 4 -9 8 -19 8 -19 8 3 15 12 4 22 12 22 17 0 6 -5 7
-10 4 -7 -4 -9 2 -4 19 3 14 3 26 0 26 -3 0 -6 -5 -6 -11z m-106 -290 c-3 -5
1 -6 8 -4 9 4 14 -2 14 -14 0 -11 -4 -19 -9 -18 -5 1 -12 -4 -15 -12 -3 -8 0
-11 7 -7 7 5 9 1 4 -11 -6 -17 -6 -17 14 0 16 14 23 15 29 6 4 -7 3 -10 -3 -6
-6 4 -16 0 -23 -8 -7 -8 -16 -12 -21 -9 -6 3 -8 -6 -5 -20 5 -30 -8 -82 -21
-79 -5 1 -10 -7 -10 -18 -2 -18 0 -19 15 -7 15 11 15 11 5 -3 -7 -9 -10 -19
-6 -22 3 -4 2 -7 -4 -7 -13 0 -13 -31 0 -50 9 -12 9 -13 -3 -2 -16 13 -34 17
-26 4 2 -4 1 -14 -4 -21 -4 -8 -4 -27 1 -44 5 -19 5 -35 -1 -42 -5 -7 -7 -15
-3 -18 3 -4 -2 -7 -13 -8 -18 0 -18 -1 1 -9 15 -6 16 -9 4 -9 -16 -1 -23 -31
-7 -31 4 0 8 -5 8 -12 0 -6 -3 -8 -6 -5 -4 3 -15 2 -25 -3 -12 -7 -20 -6 -25
2 -4 7 -3 8 4 4 16 -10 15 6 0 24 -11 12 -10 12 4 2 11 -9 18 -10 23 -2 3 5 2
10 -4 10 -10 0 -8 51 3 69 4 5 -2 14 -11 20 -23 13 -8 14 16 2 13 -7 18 -6 18
4 0 8 -4 12 -8 10 -4 -3 -10 2 -13 11 -3 8 -2 13 3 10 5 -3 12 1 15 10 9 23 7
34 -5 34 -5 0 -7 -4 -4 -10 4 -6 -1 -7 -11 -3 -11 4 -13 8 -6 11 7 2 10 7 7
11 -2 5 6 6 19 4 13 -3 26 0 30 5 4 6 -3 8 -16 6 -13 -2 -17 -1 -9 2 11 5 11
8 0 15 -10 6 -11 9 -1 9 6 0 12 5 12 11 0 5 -4 8 -9 4 -5 -3 -13 0 -17 6 -4 8
-3 9 4 5 7 -4 12 -1 12 6 0 9 3 9 10 -2 8 -12 10 -11 10 8 0 12 -5 21 -11 20
-6 -2 -14 4 -16 12 -4 12 -3 12 5 1 7 -10 11 -10 17 -1 4 7 1 16 -6 21 -8 5
-9 9 -3 9 5 0 15 -5 21 -11 13 -13 33 -4 32 14 0 9 -2 9 -6 0 -9 -23 -25 -14
-18 10 5 17 4 19 -5 7 -8 -12 -9 -9 -6 14 3 16 10 34 16 40 15 15 12 30 -4 17
-12 -10 -14 -9 -11 6 1 10 8 17 14 16 15 -4 14 30 -1 47 -7 8 -3 6 9 -4 13
-10 20 -23 17 -27z"/>
<path d="M3960 2432 c0 -192 2 -351 5 -354 3 -3 141 64 308 149 371 189 387
197 387 203 0 5 -685 350 -695 350 -3 0 -5 -157 -5 -348z"/>
</g>
</svg>
